<?xml version="1.0" standalone="no"?><!DOCTYPE svg PUBLIC "-//W3C//DTD SVG 1.1//EN" "http://www.w3.org/Graphics/SVG/1.1/DTD/svg11.dtd"><svg t="1747930197096" class="icon" viewBox="0 0 1024 1024" version="1.1" xmlns="http://www.w3.org/2000/svg" p-id="8237" xmlns:xlink="http://www.w3.org/1999/xlink" width="64" height="64"><path d="M922.112 678.676l-0.256 68.588c-0.04 6.164-4.096 12.406-12.248 17.132L542.898 977.466c-16.384 9.532-43.028 9.532-59.492 0.04L114.314 764.376c-8.29-4.766-12.426-11.046-12.426-17.308l0.256-68.59c0 6.302 4.136 12.544 12.406 17.35l369.112 213.07c16.464 9.55 43.126 9.55 59.51 0l366.692-213.11c8.152-4.726 12.208-10.91 12.248-17.132v0.02z" fill="#6DCB60" p-id="8238"></path><path d="M909.864 695.788L543.174 908.92c-16.384 9.532-43.048 9.532-59.51 0l-218.94-126.386v68.708l218.684 126.266c16.46 9.492 43.126 9.492 59.49-0.04l366.71-213.07c8.152-4.726 12.208-10.968 12.248-17.132l0.256-68.588c-0.04 6.202-4.096 12.406-12.248 17.132v-0.02z" fill="#3DB542" p-id="8239"></path><path d="M909.864 695.788l-238.454 138.576v68.43l238.198-138.418c8.152-4.726 12.21-10.948 12.248-17.132l0.256-68.568c-0.04 6.202-4.096 12.406-12.248 17.132v-0.02z" fill="#2C9A2C" p-id="8240"></path><path d="M909.686 661.346c16.482 9.512 16.562 24.932 0.18 34.46L543.152 908.9c-16.384 9.532-43.008 9.532-59.492 0.02L114.57 695.828c-16.482-9.512-16.56-24.95-0.178-34.462l366.71-213.11c16.384-9.532 43.008-9.532 59.472 0l369.112 213.09z" fill="#81D672" p-id="8241"></path><path d="M181.326 228.548l1.478 433.112 325.434 189.126-1.476-433.132-325.436-189.106z" fill="#D6D4D2" p-id="8242"></path><path d="M506.76 417.674l1.48 433.132 327.58-189.144-1.496-433.132-327.562 189.144z" fill="#C4C2C0" p-id="8243"></path><path d="M181.326 228.55l325.436 189.124 327.56-189.126-325.336-189.164-327.66 189.166z" fill="#E9E8E6" p-id="8244"></path><path d="M799.588 228.412l-13.924 8.034-276.676-160.788v-16.128l290.6 168.88z" fill="#D6D4D2" p-id="8245"></path><path d="M508.986 59.53v16.148l-279.04 160.964-13.92-8.074 292.96-169.04z" fill="#C4C2C0" p-id="8246"></path><path d="M229.948 236.642l279.04-160.984 276.676 160.788-278.822 160.984-276.894-160.788z" fill="#F25A5A" p-id="8247"></path><path d="M606.05 307.26l0.69 51.318 114.352-66.048-0.688-51.3-114.354 66.03z" fill="#3293C9" p-id="8248"></path><path d="M568.42 285.54l75.104 43.46 114.138-66.246-74.812-43.48-114.432 66.264z" fill="#3F9AE0" p-id="8249"></path><path d="M516.588 184.2l0.12 21.152 64.884-37.476-0.118-21.128L516.588 184.2z" fill="#D4D6D6" p-id="8250"></path><path d="M452.036 146.708l0.14 21.13 64.53 37.514-0.118-21.15-64.552-37.494z" fill="#E0E2E2" p-id="8251"></path><path d="M452.036 146.708L516.588 184.2l64.886-37.454-64.55-37.514-64.888 37.474z" fill="#FFFFFF" p-id="8252"></path><path d="M487.6 148.204a28.732 16.64 0 1 0 57.464 0 28.732 16.64 0 1 0-57.464 0Z" fill="#5B5E71" p-id="8253"></path><path d="M402.04 250.564l0.116 21.13 64.886-37.454-0.118-21.13-64.886 37.454z" fill="#D4D6D6" p-id="8254"></path><path d="M337.506 213.07l0.12 21.13 64.53 37.494-0.118-21.13-64.532-37.494z" fill="#E0E2E2" p-id="8255"></path><path d="M337.506 213.07l64.532 37.494 64.886-37.454-64.552-37.514-64.866 37.474z" fill="#FFFFFF" p-id="8256"></path><path d="M372.872 214.252a28.732 16.64 0 1 0 57.464 0 28.732 16.64 0 1 0-57.464 0Z" fill="#5B5E71" p-id="8257"></path><path d="M639.804 330.988l4.312 485.868 114.294-66.048-0.67-487.936-117.936 68.116z" fill="#0074D1" p-id="8258"></path><path d="M568.714 285.54l0.59 51.14 36.668 21.286 0.59 437.012 37.554 21.88-0.886-487.86-74.516-43.46z" fill="#006CB5" p-id="8259"></path><path d="M705.772 784.994l-3.82-2.224-0.158-84.48 3.84 2.224 0.14 84.48z" fill="#98A7BA" p-id="8260"></path><path d="M741.73 679.346l0.158 84.48-36.116 21.168-0.138-84.48 36.096-21.168z" fill="#C0C8D5" p-id="8261"></path><path d="M734.168 759.612l-0.196-72.39 4.824-2.756 0.1 77.606-4.728-2.46z" fill="#98A7BA" p-id="8262"></path><path d="M734.168 759.612l4.726 2.46-30.188 17.822v-5.316l25.462-14.966z" fill="#D9E0E6" p-id="8263"></path><path d="M733.972 687.222l0.196 72.39-25.46 14.966-0.1-72.41 25.364-14.946z" fill="#434240" p-id="8264"></path><path d="M669.696 806.066l-3.84-2.226-0.138-84.48 3.82 2.226 0.158 84.48z" fill="#98A7BA" p-id="8265"></path><path d="M665.796 719.46l3.84 2.066 36.078-20.992 36.076-21.306-3.86-2.068-36.076 20.992-36.058 21.306z" fill="#D9E0E6" p-id="8266"></path><path d="M705.654 700.416l0.138 84.48-36.096 21.17-0.158-84.48 36.116-21.17z" fill="#C0C8D5" p-id="8267"></path><path d="M698.092 780.68l-0.196-72.388 4.804-2.756 0.1 77.626-4.708-2.48z" fill="#98A7BA" p-id="8268"></path><path d="M698.092 780.68l4.726 2.482-30.188 17.802v-5.316l25.462-14.966z" fill="#D9E0E6" p-id="8269"></path><path d="M697.896 708.292l0.196 72.39-25.46 14.966-0.1-72.388 25.364-14.968z" fill="#434240" p-id="8270"></path><path d="M480.06 476.456l-0.296 102.774-6.952 4.036-108.642-62.7 0.296-102.754 6.95-4.038 108.642 62.68z m-263.288-151.75l108.624 62.74-0.296 102.754-6.952 3.998-108.62-62.68 0.294-102.774 6.95-4.038z" fill="#0074D1" p-id="8271"></path><path d="M371.18 516.568l6.952-4.036 0.236-86.706-6.952 4.038-0.236 86.704z" fill="#C4C2C0" p-id="8272"></path><path d="M465.84 571.214l6.932-4.036-94.64-54.646-6.952 4.036 94.66 54.646z" fill="#FFFFFF" p-id="8273"></path><path d="M472.812 583.286l6.932-4.036 0.296-102.774-6.952 4.036-0.276 102.774z" fill="#C4C2C0" p-id="8274"></path><path d="M473.088 480.512l6.952-4.036-108.624-62.72-6.95 4.036 108.622 62.72z" fill="#FFFFFF" p-id="8275"></path><path d="M472.812 583.286l-108.642-62.72 0.296-102.774 108.622 62.72-0.276 102.774z m-101.632-66.718l94.66 54.646 0.238-86.704-94.66-54.646-0.238 86.704z" fill="#B2B0AF" p-id="8276"></path><path d="M216.516 427.52l6.952-4.036 0.256-86.706-6.952 4.036-0.256 86.706z" fill="#C4C2C0" p-id="8277"></path><path d="M311.178 482.166l6.952-4.036-94.66-54.646-6.954 4.036 94.662 54.646z" fill="#FFFFFF" p-id="8278"></path><path d="M318.148 494.218l6.932-4.038 0.296-102.754-6.952 4.038-0.276 102.754z" fill="#C4C2C0" p-id="8279"></path><path d="M318.424 391.464l6.952-4.038-108.622-62.72-6.952 4.038 108.622 62.72z" fill="#FFFFFF" p-id="8280"></path><path d="M318.148 494.218l-108.64-62.7 0.294-102.774 108.622 62.72-0.276 102.754z m-101.612-66.698l94.64 54.646 0.238-86.706-94.64-54.646-0.238 86.706z" fill="#B2B0AF" p-id="8281"></path><path d="M480.06 658.904l-0.296 102.756-6.952 4.056-108.642-62.7 0.296-102.756 6.95-4.056 108.642 62.7z m-263.288-151.768l108.624 62.76-0.296 102.754-6.952 3.998-108.62-62.7 0.294-102.756 6.95-4.056z" fill="#0074D1" p-id="8282"></path><path d="M371.18 699.018l6.952-4.038 0.236-86.724-6.952 4.036-0.236 86.726z" fill="#C4C2C0" p-id="8283"></path><path d="M465.84 753.664l6.932-4.036-94.64-54.648-6.952 4.038 94.66 54.646z" fill="#FFFFFF" p-id="8284"></path><path d="M472.812 765.716l6.932-4.038 0.296-102.754-6.952 4.038-0.276 102.754z" fill="#C4C2C0" p-id="8285"></path><path d="M473.088 662.96l6.952-4.036-108.624-62.72-6.95 4.038 108.622 62.72z" fill="#FFFFFF" p-id="8286"></path><path d="M472.812 765.716l-108.66-62.7 0.294-102.756 108.622 62.72-0.256 102.736z m-101.632-66.7l94.66 54.648 0.238-86.706-94.66-54.666-0.238 86.726z" fill="#B2B0AF" p-id="8287"></path><path d="M216.516 609.95l6.952-4.038 0.256-86.704-6.952 4.036-0.256 86.706z" fill="#C4C2C0" p-id="8288"></path><path d="M311.178 664.616l6.952-4.058-94.66-54.646-6.954 4.038 94.662 54.666z" fill="#FFFFFF" p-id="8289"></path><path d="M318.148 676.666l6.932-4.036 0.296-102.774-6.952 4.056-0.276 102.754z" fill="#C4C2C0" p-id="8290"></path><path d="M318.424 573.912l6.952-4.056-108.622-62.7-6.952 4.036 108.622 62.72z" fill="#FFFFFF" p-id="8291"></path><path d="M318.148 676.666l-108.64-62.72 0.294-102.754 108.622 62.72-0.276 102.754z m-101.612-66.716l94.64 54.666 0.238-86.726-94.64-54.646-0.238 86.706z" fill="#B2B0AF" p-id="8292"></path><path d="M536.162 452.648l0.532 121.796 6.164 3.584 42.85-24.478-0.532-121.816-6.164-3.584-42.85 24.498z" fill="#434240" p-id="8293"></path><path d="M548.43 574.366l-7.01-4.076 32.592-18.512 7.01 4.058-32.592 18.53z" fill="#FFFFFF" p-id="8294"></path><path d="M581.02 555.836l-7.008-4.078-0.552-119.926 6.99 4.058 0.572 119.946z m-40.624 32.432l-7.01-4.076-0.61-138.436 6.99 4.056 0.63 138.456z" fill="#B2B0AF" p-id="8295"></path><path d="M539.766 449.812l-6.99-4.056 48.7-27.826 7.008 4.056-48.718 27.826z" fill="#FFFFFF" p-id="8296"></path><path d="M539.766 449.812l48.72-27.826 0.61 138.438-48.7 27.844-0.63-138.456z m41.256 106.024l-0.572-119.928-32.59 18.512 0.552 119.926 32.61-18.51z" fill="#D6D4D2" p-id="8297"></path><path d="M536.616 656.01l0.532 119.572 6.044 3.524 42.064-24.024-0.512-119.592-6.066-3.504-42.062 24.024z" fill="#434240" p-id="8298"></path><path d="M548.43 776.802l-7.01-4.076 32.592-18.51 7.01 4.056-32.592 18.53z" fill="#FFFFFF" p-id="8299"></path><path d="M581.02 758.272l-7.008-4.056-0.552-119.926 6.99 4.056 0.572 119.926z m-40.624 32.434l-7.01-4.078-0.61-138.436 6.99 4.076 0.63 138.438z" fill="#B2B0AF" p-id="8300"></path><path d="M539.766 652.268l-6.99-4.076 48.7-27.826 7.008 4.078-48.718 27.824z" fill="#FFFFFF" p-id="8301"></path><path d="M539.766 652.268l48.72-27.824 0.61 138.436-48.7 27.826-0.63-138.438z m41.256 106.004l-0.572-119.926-32.59 18.51 0.552 119.946 32.61-18.53z" fill="#D6D4D2" p-id="8302"></path><path d="M771.74 322.934l0.552 121.798 6.164 3.584 42.852-24.48-0.532-121.816-6.164-3.584-42.87 24.5z" fill="#434240" p-id="8303"></path><path d="M784.01 444.652l-6.99-4.076 32.59-18.51 7.01 4.056-32.61 18.53z" fill="#FFFFFF" p-id="8304"></path><path d="M816.62 426.12l-7.01-4.074-0.552-119.926 6.992 4.056 0.57 119.946z m-40.644 32.436l-6.992-4.078-0.61-138.436 6.99 4.056 0.612 138.458z" fill="#B2B0AF" p-id="8305"></path><path d="M775.364 320.1l-6.99-4.06 48.7-27.824 7.01 4.058-48.72 27.824z" fill="#FFFFFF" p-id="8306"></path><path d="M775.364 320.1l48.72-27.826 0.61 138.436-48.72 27.846-0.61-138.458z m41.256 106.02l-0.57-119.924-32.592 18.51 0.552 119.926 32.61-18.51z" fill="#D6D4D2" p-id="8307"></path><path d="M772.214 526.296l0.532 119.572 6.026 3.526 42.082-24.026-0.532-119.59-6.046-3.506-42.06 24.024z" fill="#434240" p-id="8308"></path><path d="M784.01 647.09l-6.99-4.078 32.59-18.51 7.01 4.056-32.61 18.532z" fill="#FFFFFF" p-id="8309"></path><path d="M816.62 628.58l-7.01-4.078-0.552-119.926 6.992 4.056 0.57 119.946z m-40.644 32.412l-6.992-4.076-0.61-138.438 6.99 4.078 0.612 138.436z" fill="#B2B0AF" p-id="8310"></path><path d="M775.364 522.556l-6.99-4.078 48.7-27.824 7.01 4.076-48.72 27.826z" fill="#FFFFFF" p-id="8311"></path><path d="M775.364 522.556l48.72-27.826 0.61 138.436-48.72 27.826-0.61-138.436z m41.256 106.002l-0.57-119.926-32.592 18.512 0.552 119.946 32.61-18.532z" fill="#D6D4D2" p-id="8312"></path><path d="M651.678 396.072l0.256 86.134 5.808 3.386 91.078-52.56-0.256-86.132-5.83-3.388-91.056 52.56z" fill="#FFD651" p-id="8313"></path><path d="M742.952 429.686l-5.83-3.386-0.196-72.686 5.808 3.388 0.218 72.684z" fill="#C4C2C0" p-id="8314"></path><path d="M663.592 475.49l-5.81-3.386 79.34-45.804 5.83 3.386-79.36 45.804z" fill="#FFFFFF" p-id="8315"></path><path d="M657.762 485.612l-5.828-3.386-0.236-86.154 5.808 3.386 0.256 86.154z" fill="#C4C2C0" p-id="8316"></path><path d="M657.526 399.46l-5.828-3.388 91.056-52.58 5.83 3.388-91.058 52.58z" fill="#FFFFFF" p-id="8317"></path><path d="M657.526 399.46l91.058-52.58 0.236 86.154-91.058 52.58-0.236-86.156z m85.426 30.226l-0.198-72.684-79.36 45.804 0.198 72.684 79.36-45.804z" fill="#B2B0AF" p-id="8318"></path><path d="M651.678 557.332l0.256 86.154 5.808 3.386 91.078-52.56-0.256-86.132-5.83-3.388-91.056 52.54z" fill="#FFD651" p-id="8319"></path><path d="M742.952 590.966l-5.83-3.386-0.196-72.686 5.808 3.388 0.218 72.684z" fill="#C4C2C0" p-id="8320"></path><path d="M663.592 636.77l-5.81-3.386 79.34-45.804 5.83 3.386-79.36 45.804z" fill="#FFFFFF" p-id="8321"></path><path d="M657.762 646.892l-5.828-3.406-0.236-86.134 5.808 3.386 0.256 86.154z" fill="#C4C2C0" p-id="8322"></path><path d="M657.526 560.74l-5.828-3.388 91.056-52.58 5.83 3.388-91.058 52.58z" fill="#FFFFFF" p-id="8323"></path><path d="M657.526 560.74l91.058-52.58 0.236 86.154-91.058 52.58-0.236-86.156z m85.426 30.226l-0.198-72.684-79.36 45.804 0.198 72.664 79.36-45.784z" fill="#B2B0AF" p-id="8324"></path><path d="M420.234 345.798a46.218 46.218 0 0 0-18.748 11.736c-5.316 5.474-9.372 11.874-11.716 18.904-0.946 2.364-3.92 2.364-4.844 0a47.3 47.3 0 0 0-30.484-30.62c-2.344-0.632-2.344-3.742 0-4.53a51.506 51.506 0 0 0 19.062-11.718 50.46 50.46 0 0 0 11.42-18.766c0.928-2.66 3.9-2.66 4.846 0 2.344 7.03 6.4 13.588 11.716 18.766 5.16 5.318 11.56 9.216 18.748 11.718 2.362 0.788 2.362 3.9 0 4.528v-0.02z" fill="#FFFFFF" p-id="8325"></path></svg>